<?xml version="1.0" encoding="UTF-8" standalone="no"?>
<!DOCTYPE svg PUBLIC "-//W3C//DTD SVG 20010904//EN"
              "http://www.w3.org/TR/2001/REC-SVG-20010904/DTD/svg10.dtd">

<svg xmlns="http://www.w3.org/2000/svg"
     width="4.44444in" height="4.44444in"
     viewBox="0 0 400 400">
  <path id="Selección #2"
        fill="none" stroke="black" stroke-width="1"
        d="M 75.00,100.00
           C 79.05,101.25 82.69,103.59 87.00,103.90
             97.33,104.66 106.02,97.15 107.25,87.00
             107.93,84.05 107.24,80.97 107.25,78.00
             107.25,78.00 160.00,67.45 160.00,67.45
             160.00,67.45 264.00,46.81 264.00,46.81
             264.00,46.81 312.00,37.46 312.00,37.46
             312.00,37.46 340.00,32.50 340.00,32.50
             340.00,32.50 364.00,28.00 364.00,28.00
             361.17,19.99 356.94,22.75 347.00,24.13
             347.00,24.13 299.00,32.55 299.00,32.55
             299.00,32.55 276.00,36.31 276.00,36.31
             276.00,36.31 227.00,45.45 227.00,45.45
             227.00,45.45 132.00,65.00 132.00,65.00
             132.00,65.00 104.00,70.98 104.00,70.98
             100.83,70.71 98.13,68.17 95.00,66.99
             88.47,64.52 80.32,66.77 75.38,71.53
             66.06,80.51 71.49,90.00 70.41,95.00
             69.87,97.47 62.38,109.86 60.58,113.00
             32.38,162.19 14.55,225.71 8.83,282.00
             8.83,282.00 6.00,312.00 6.00,312.00
             6.00,312.00 5.00,325.00 5.00,325.00
             5.00,325.00 5.00,351.00 5.00,351.00
             5.01,354.39 5.27,361.85 6.72,364.77
             8.16,367.67 11.48,368.33 12.98,366.39
             13.96,365.03 13.00,356.41 12.98,354.00
             12.98,354.00 12.98,319.00 12.98,319.00
             12.98,319.00 15.83,285.00 15.83,285.00
             19.44,249.06 26.33,213.25 38.08,179.00
             44.43,160.49 52.29,142.38 61.26,125.00
             61.26,125.00 75.00,100.00 75.00,100.00 Z
           M 364.94,34.75
           C 364.94,34.75 314.00,43.58 314.00,43.58
             305.54,45.10 298.16,43.69 298.00,53.00
             298.00,53.00 298.00,58.00 298.00,58.00
             298.00,58.00 299.00,72.00 299.00,72.00
             299.18,109.74 290.68,145.38 264.83,174.00
             255.32,184.53 241.51,195.91 229.00,202.69
             201.16,217.78 155.65,225.75 124.00,228.00
             124.00,228.00 116.00,228.00 116.00,228.00
             116.00,228.00 94.00,230.00 94.00,230.00
             94.00,230.00 84.00,230.00 84.00,230.00
             84.00,230.00 71.00,231.00 71.00,231.00
             71.00,231.00 38.00,231.00 38.00,231.00
             35.79,231.00 32.29,230.78 30.42,232.02
             28.01,233.62 27.36,237.37 26.80,240.00
             26.80,240.00 23.54,260.00 23.54,260.00
             23.54,260.00 18.00,313.00 18.00,313.00
             18.00,313.00 18.00,353.00 18.00,353.00
             18.01,356.82 18.33,366.67 20.74,369.51
             22.78,371.91 28.95,373.82 32.00,374.83
             41.12,377.86 50.55,380.60 60.00,382.39
             92.00,388.44 108.41,390.32 141.00,387.17
             155.85,385.73 170.57,383.64 185.00,379.57
             250.53,361.10 302.69,323.43 339.69,266.00
             359.76,234.85 372.15,205.66 378.14,169.00
             379.94,158.04 381.98,147.19 382.00,136.00
             382.05,100.79 382.61,94.22 375.20,59.00
             374.46,55.51 369.80,38.41 368.08,36.35
             366.79,34.81 366.51,35.21 364.94,34.75 Z
           M 33.00,219.00
           C 33.00,219.00 85.00,219.00 85.00,219.00
             85.00,219.00 100.00,218.00 100.00,218.00
             100.00,218.00 122.00,216.83 122.00,216.83
             122.00,216.83 132.00,215.17 132.00,215.17
             132.00,215.17 160.00,211.74 160.00,211.74
             202.74,203.77 243.41,185.76 266.40,147.00
             271.65,138.14 275.06,130.85 278.12,121.00
             281.87,108.91 284.85,93.66 285.00,81.00
             285.00,81.00 284.17,59.00 284.17,59.00
             283.90,56.37 284.29,52.65 281.69,51.16
             279.63,49.81 275.30,50.83 273.00,51.16
             273.00,51.16 250.00,55.60 250.00,55.60
             250.00,55.60 201.00,64.42 201.00,64.42
             201.00,64.42 162.00,71.72 162.00,71.72
             162.00,71.72 129.00,77.73 129.00,77.73
             125.08,78.33 116.21,79.24 113.31,81.72
             110.23,84.37 111.59,87.56 109.85,92.00
             108.20,96.22 102.95,101.70 99.00,103.86
             96.08,105.47 90.33,106.98 87.00,106.64
             83.47,106.33 79.57,104.15 76.39,106.64
             74.61,107.99 72.74,111.94 71.58,114.00
             71.58,114.00 61.69,134.00 61.69,134.00
             52.86,153.23 44.95,172.64 39.09,193.00
             36.63,201.56 33.20,209.98 33.00,219.00 Z" />
</svg>
